<?xml version="1.0" encoding="UTF-8"?>
<svg width="308px" height="152px" viewBox="0 0 308 152" version="1.1" xmlns="http://www.w3.org/2000/svg" xmlns:xlink="http://www.w3.org/1999/xlink">
    <!-- Generator: sketchtool 60 (101010) - https://sketch.com -->
    <title>AB8ABC0F-F7B4-4142-99C4-06E77598A426</title>
    <desc>Created with sketchtool.</desc>
    <g id="Asset-Artboard-Page" stroke="none" stroke-width="1" fill="none" fill-rule="evenodd">
        <g id="logo_engage_white" fill="#FFFFFF" fill-rule="nonzero">
            <g>
                <g id="engage_x5F_white" transform="translate(0.000000, 87.000000)">
                    <path d="M287.5,28.5 C282.3,28.5 277.1,28.5 271.9,28.5 C270.3,28.5 270,28.8 270.4,30.3 C271.8,37.2 276.7,42.5 283.6,43.7 C289.5,44.7 294.6,43 299.2,39.4 C300,38.7 301,38.1 302.1,37.9 C303.5,37.6 304.7,38.3 305.3,39.7 C305.9,41 305.6,42.2 304.6,43.2 C302.3,45.5 299.7,47.4 296.6,48.6 C291.4,50.7 286,51 280.6,49.8 C273.4,48.2 268.2,43.7 265,37 C262.9,32.6 262.4,28 262.8,23.1 C263.3,17.3 265.4,12.3 269.3,8 C272.6,4.4 276.7,2.1 281.7,1.3 C286.3,0.5 290.7,1 295,2.9 C299.6,5 302.9,8.5 305.1,13 C306.9,16.7 307.7,20.6 307.7,24.7 C307.7,26.9 306.6,28.2 304.4,28.3 C302.3,28.5 300.3,28.4 298.2,28.4 C294.6,28.5 291,28.5 287.5,28.5 Z M270,22.8 C270.7,22.9 271.1,22.9 271.5,22.9 C280.6,22.9 289.7,22.9 298.8,22.9 C300.1,22.9 300.4,22.6 300.1,21.2 C299.5,18.5 298.6,15.8 297.2,13.4 C294.2,8.4 286.8,5.8 281.3,7.7 C276.3,9.4 273.1,12.9 271.4,17.8 C270.8,19.4 270.5,21.1 270,22.8 Z" id="e2"></path>
                    <path d="M247.3,9.4 C247.3,8.1 247.3,6.8 247.3,5.5 C247.3,3.2 248.9,1.4 251,1.4 C253.1,1.4 254.7,3.1 254.7,5.4 C254.7,17.8 254.8,30.2 254.7,42.5 C254.6,47.9 253,52.9 249.3,57 C246.8,59.8 243.6,61.6 240,62.7 C235.5,64.1 230.9,64.3 226.3,63.8 C220.8,63.3 215.6,61.4 210.8,58.6 C208.8,57.4 208.1,55.5 209.1,53.9 C210.3,52 212.2,51.7 214.3,53 C219.6,56.4 225.5,58 231.8,57.7 C235.4,57.5 238.7,56.7 241.6,54.5 C245.1,51.8 246.7,48.2 247.2,43.9 C247.4,41.6 247.2,39.2 247.2,36.5 C240.9,43.9 233.4,47.3 223.9,45.2 C218.4,44 213.8,41.1 210.5,36.5 C204.3,27.7 205.4,14.8 212.9,7.5 C217.8,2.8 223.7,0.7 230.5,1.1 C237.2,1.5 242.7,4.5 246.9,9.8 C247.1,9.5 247.2,9.5 247.3,9.4 Z M228.4,39.1 C235.6,39.1 239.7,37.4 243.5,33.6 C247.8,29.3 248.8,22.2 246.2,16.7 C242.3,8.5 230.9,5 222.4,9.3 C214.7,13.3 212.5,22.4 215.6,29.6 C218.3,36 223.6,38.9 228.4,39.1 Z" id="g2"></path>
                    <path d="M192.1,43 C189.9,45.1 187.7,46.9 185.1,48.2 C180.7,50.4 176,50.6 171.3,50 C167.5,49.5 164.1,48 161.3,45.3 C154.9,39 156,27 165.2,22.6 C168.2,21.1 171.4,20.2 174.7,20.2 C178.2,20.2 181.6,20.3 185.1,20.5 C187,20.6 188.8,21.2 190.7,21.6 C191.9,21.9 192.1,21.8 192.1,20.6 C192.1,15.7 190.6,11.6 185.8,9.4 C184,8.6 182,8.2 180.1,8 C175.2,7.5 170.5,8.6 166,10.5 C164.2,11.3 162.3,10.5 161.6,8.8 C160.9,7.1 161.8,5.2 163.7,4.4 C170.3,1.5 177.3,0.6 184.4,1.8 C191,2.8 196,6.3 198.2,13 C198.7,14.7 199.1,16.5 199.1,18.3 C199.2,27.6 199.2,36.9 199.2,46.2 C199.2,48.4 197.8,49.9 195.7,49.9 C193.8,49.9 192.2,48.4 192.2,46.5 C192.1,45.3 192.1,44.1 192.1,43 Z M192.2,30.9 C192.2,30.1 192.3,29.3 192.2,28.4 C192.1,27.9 191.7,27.3 191.3,27.1 C190.6,26.8 189.8,26.6 189,26.5 C186.4,26.1 183.8,25.7 181.2,25.4 C177,25 173,25.4 169.3,27.5 C165.6,29.6 164.4,33.1 165.2,36.8 C166.1,40.9 169.2,42.9 173.1,43.9 C176.3,44.8 179.5,44.4 182.6,43.4 C187.4,42.1 192.7,37.8 192.2,30.9 Z" id="a"></path>
                    <path d="M142.5,36.5 C137.4,43 130.7,46.3 122.5,45.6 C116.6,45.1 111.4,42.7 107.4,38.2 C99.7,29.5 100.4,15.7 108.1,7.7 C115.5,-0.1 132.2,-3.1 142.8,9.6 C142.8,8.8 142.8,7.9 142.8,7.1 C142.8,6 142.7,4.9 143,3.9 C143.6,2.2 145.2,1.3 146.8,1.5 C148.6,1.8 150,3.3 150.1,5.1 C150.1,5.3 150.1,5.5 150.1,5.7 C150.1,17.9 150.3,30.1 150,42.2 C149.9,48.4 148,54 143.2,58.4 C140.9,60.5 138.2,61.8 135.3,62.7 C130.9,64.1 126.2,64.3 121.7,63.8 C116,63.3 110.8,61.4 105.9,58.4 C104,57.3 103.5,55.3 104.5,53.7 C105.7,51.9 107.6,51.6 109.6,52.8 C112.7,54.8 116,56.1 119.6,56.9 C122.9,57.6 126.3,57.8 129.6,57.3 C136.1,56.2 141.1,52.4 142.3,45.3 C142.5,44.2 142.7,43.2 142.7,42.1 C142.8,40.3 142.7,38.4 142.7,36.6 C142.7,36.7 142.6,36.6 142.5,36.5 Z M109.5,23.1 C109.7,24.6 109.8,26.1 110.2,27.6 C111.8,33.6 115.9,37.3 121.7,38.7 C127.2,40 132.4,38.8 137.1,35.3 C143.5,30.5 144.9,20.7 140.2,14.4 C136.1,8.9 128.1,6.2 121.2,8 C114.3,9.9 109.4,15.6 109.5,23.1 Z" id="g"></path>
                    <path d="M60.2,9.5 C61.4,8.1 62.3,6.9 63.4,5.9 C66,3.4 69,1.9 72.7,1.3 C77.1,0.6 81.3,1 85.4,3 C89.7,5.1 92.4,8.6 93.7,13.1 C94.3,15.1 94.6,17.2 94.7,19.2 C94.8,28.1 94.7,37.1 94.8,46 C94.8,47.8 93.8,48.9 92.3,49.6 C90.9,50.2 89.5,49.8 88.6,48.8 C87.9,48 87.4,46.7 87.4,45.6 C87.3,37.8 87.3,29.9 87.4,22.1 C87.4,19.9 87.2,17.8 86.5,15.8 C85,11.3 81.8,8.8 77.1,8 C72.8,7.3 68.9,8.2 65.4,11 C62.8,13.1 61.3,15.9 60.8,19.1 C60.5,21.5 60.4,24 60.4,26.5 C60.3,33.1 60.4,39.7 60.4,46.3 C60.4,48.2 59.7,49.2 57.9,49.8 C56.7,50.3 54.9,49.9 54,48.6 C53.4,47.8 53.1,46.6 53.1,45.6 C53,36.5 53.1,27.5 53.1,18.4 C53.1,14.1 53.1,9.8 53.1,5.5 C53.1,2.7 55.4,1 57.9,1.8 C59.4,2.3 60.3,3.5 60.3,5.1 C60.2,6.4 60.2,7.8 60.2,9.5 Z" id="n"></path>
                    <path d="M25.3,28.5 C20,28.5 14.8,28.5 9.5,28.5 C7.9,28.5 7.9,28.7 8.2,30.3 C8.8,32.9 9.6,35.4 11.3,37.6 C13.8,40.9 17,42.8 21.1,43.7 C24.2,44.4 27.1,44 30.1,43.2 C32.7,42.5 34.9,41.1 37,39.4 C38,38.6 38.9,37.7 40.3,37.8 C41.6,37.9 42.6,38.5 43,39.6 C43.5,40.7 43.5,42 42.5,42.9 C38.4,47 33.5,49.8 27.6,50.1 C24.8,50.2 22,50.2 19.3,49.8 C15.7,49.3 12.5,47.7 9.7,45.5 C4.9,41.7 2,36.8 1,30.7 C-0.6,21.7 1.3,13.6 8,7 C11.1,3.9 15,2.1 19.4,1.3 C26,0.2 32,1.5 37.1,5.8 C41.9,9.8 44.4,15.1 45.1,21.2 C45.2,22.1 45.3,23 45.4,23.9 C45.7,26.3 44.4,28 42,28.4 C41.4,28.5 40.9,28.5 40.3,28.5 C35.3,28.5 30.3,28.5 25.3,28.5 Z M22.7,22.9 C27.2,22.9 31.6,22.9 36.1,22.9 C37.8,22.9 37.9,22.8 37.7,21.2 C37.5,20 37.3,18.9 36.9,17.7 C35.3,12.7 32.2,9.1 27,7.7 C20.9,6 15,8.4 11.3,13.4 C9.6,15.8 8.6,18.5 8,21.4 C7.7,22.6 7.9,22.9 9.2,22.9 C13.7,22.9 18.2,22.9 22.7,22.9 Z" id="e"></path>
                </g>
                <path d="M255.3,84.1 C254,84.1 252.8,83.3 252.4,81.9 C246.1,60.6 233.1,41.4 215.7,27.9 C197.8,14.1 176.5,6.7 154,6.7 C131.5,6.7 110.2,14 92.3,27.9 C75,41.4 61.9,60.5 55.6,81.8 C55.1,83.4 53.5,84.3 51.9,83.8 C50.3,83.3 49.4,81.7 49.9,80.1 C56.6,57.6 70.3,37.4 88.7,23.2 C107.7,8.5 130.3,0.7 154.1,0.7 C177.9,0.7 200.6,8.5 219.5,23.2 C237.8,37.4 251.6,57.7 258.2,80.2 C258.7,81.8 257.8,83.5 256.2,83.9 C255.9,84.1 255.6,84.1 255.3,84.1 Z" id="Path"></path>
            </g>
        </g>
    </g>
</svg>