<?xml version="1.0" encoding="UTF-8"?>
<svg width="308px" height="152px" viewBox="0 0 308 152" version="1.1" xmlns="http://www.w3.org/2000/svg" xmlns:xlink="http://www.w3.org/1999/xlink">
    <!-- Generator: sketchtool 60 (101010) - https://sketch.com -->
    <title>6C1D5080-7C27-434E-9979-CEA75043A51F</title>
    <desc>Created with sketchtool.</desc>
    <g id="Asset-Artboard-Page" stroke="none" stroke-width="1" fill="none" fill-rule="evenodd">
        <g id="logo_engage_color" fill-rule="nonzero">
            <g>
                <g id="engage_color" transform="translate(0.000000, 87.000000)" fill="#2E7EB4">
                    <path d="M287.1,27.8 L271.5,27.8 C269.9,27.8 269.6,28.1 270,29.6 C271.4,36.5 276.3,41.8 283.2,43 C290.1,44.2 294.2,42.3 298.8,38.7 C299.648329,37.9984485 300.637223,37.4869515 301.7,37.2 C303.073254,36.8708475 304.468179,37.6554927 304.9,39 C305.497297,40.1890938 305.208695,41.6321047 304.2,42.5 C301.928329,44.8253344 299.206161,46.6627979 296.2,47.9 C291.126547,49.9767842 285.526471,50.3967899 280.2,49.1 C273.220588,47.5742597 267.409248,42.7687288 264.6,36.2 C262.627301,31.849628 261.867162,27.0469318 262.4,22.3 C262.76572,16.7177421 265.023167,11.4268498 268.8,7.3 C272.048255,3.71784087 276.423514,1.35378966 281.2,0.6 C285.692751,-0.235823219 290.333666,0.322482308 294.5,2.2 C298.958368,4.26169685 302.538303,7.84163205 304.6,12.3 C306.38027,15.9393196 307.271356,19.949208 307.2,24 C307.2,26.2 306.1,27.5 303.9,27.6 C301.7,27.7 299.8,27.7 297.7,27.7 L287.1,27.8 Z M269.6,22.1 L298.4,22.1 C299.7,22.1 300,21.8 299.7,20.4 C299.174072,17.6567509 298.193937,15.0205278 296.8,12.6 C293.8,7.6 286.4,5 280.9,6.9 C276.175796,8.49148361 272.496691,12.2449142 271,17 C270.4,18.7 270.1,20.4 269.6,22.1 Z" id="e2"></path>
                    <path d="M246.9,8.7 C246.9,7.4 246.9,6.1 246.9,4.8 C246.845575,3.76530895 247.205118,2.75148897 247.899283,1.98227953 C248.593447,1.21307009 249.565169,0.751704023 250.6,0.7 C251.625985,0.725568702 252.598004,1.16505179 253.294907,1.918461 C253.991811,2.67187021 254.354335,3.67513527 254.3,4.7 C254.3,17.1 254.4,29.5 254.3,41.8 C254.371485,47.1376681 252.445483,52.3093409 248.9,56.3 C246.38135,59.0168715 243.164043,60.9887693 239.6,62 C235.152838,63.2791072 230.494278,63.6531521 225.9,63.1 C220.405875,62.5644012 215.105529,60.7862205 210.4,57.9 C208.4,56.7 207.7,54.8 208.7,53.2 C209.7,51.6 211.8,51 213.9,52.3 C219.09019,55.6763923 225.216589,57.321768 231.4,57 C234.914914,56.9477642 238.331578,55.8321187 241.2,53.8 C244.518639,51.2485784 246.562768,47.3793347 246.8,43.2 C247,40.9 246.8,38.5 246.8,35.8 C240.5,43.2 233,46.6 223.5,44.5 C218.081658,43.4288386 213.28337,40.3135325 210.1,35.8 C203.9,27 205,14.1 212.5,6.8 C217.157932,2.21051106 223.582059,-0.125535113 230.1,0.4 C236.584488,0.660996741 242.622911,3.77169986 246.6,8.9 L246.9,8.7 Z M228,38.3 C235.2,38.3 239.3,36.6 243.1,32.8 C246.9,29 248.4,21.4 245.8,15.9 C241.9,7.7 230.5,4.2 222,8.5 C213.5,12.8 212.1,21.6 215.2,28.8 C218.3,36 223.2,38.2 228,38.4 L228,38.3 Z" id="g2"></path>
                    <path d="M191.7,42.3 C189.665011,44.402509 187.300618,46.1589147 184.7,47.5 C180.3,49.7 175.6,49.9 170.9,49.3 C167.136313,48.8905374 163.616998,47.2364593 160.9,44.6 C154.5,38.3 155.6,26.3 164.8,21.9 C167.74839,20.4024229 170.994105,19.5824525 174.3,19.5 C177.8,19.5 181.2,19.6 184.7,19.8 C186.592515,20.0199483 188.464904,20.3877389 190.3,20.9 C191.5,21.2 191.7,21.1 191.7,19.9 C191.7,15 190.2,10.9 185.4,8.7 C183.58715,7.93134709 181.662671,7.45866802 179.7,7.3 C174.87315,6.90596235 170.024671,7.73123548 165.6,9.7 C164.792313,10.0679741 163.870448,10.0950833 163.042534,9.77520723 C162.214619,9.45533113 161.550459,8.81543963 161.2,8 C160.881531,7.13867926 160.925015,6.18516187 161.320559,5.35640305 C161.716103,4.52764422 162.430066,3.89412827 163.3,3.6 C169.798515,0.732175671 176.994115,-0.171619467 184,1 C190.6,2 195.6,5.5 197.8,12.2 C198.362149,13.9120176 198.665494,15.6983828 198.7,17.5 C198.8,26.8 198.8,36.1 198.8,45.4 C198.886483,46.370146 198.55275,47.3307969 197.883422,48.0383721 C197.214094,48.7459473 196.273451,49.1324939 195.3,49.1 C193.405392,49.1007735 191.854132,47.5938349 191.8,45.7 C191.7,44.6 191.7,43.4 191.7,42.3 Z M191.7,30.2 C191.778495,29.3685151 191.778495,28.5314849 191.7,27.7 C191.591296,27.1614421 191.265826,26.6913194 190.8,26.4 C190.068489,26.0836715 189.292817,25.8813224 188.5,25.8 C185.9,25.4 183.3,25 180.7,24.7 C176.5,24.3 172.5,24.7 168.8,26.8 C165.445298,28.577154 163.749081,32.424669 164.7,36.1 C165.6,40.2 168.7,42.2 172.6,43.2 C175.750698,43.9297896 179.043317,43.7564939 182.1,42.7 C187,41.4 192.3,37.1 191.8,30.2 L191.7,30.2 Z" id="a"></path>
                    <path d="M142.1,35.8 C137,42.3 130.3,45.6 122.1,44.9 C116.285351,44.5301641 110.85486,41.8688638 107,37.5 C99.3,28.8 100,15 107.7,7 C115.4,-1 131.8,-3.8 142.4,8.9 C142.4,8.1 142.4,7.2 142.4,6.4 C142.326762,5.32917593 142.393999,4.25337162 142.6,3.2 C143.081927,1.55749645 144.709783,0.529376724 146.4,0.8 C148.172651,1.14253073 149.512615,2.6043087 149.7,4.4 C149.7,4.6 149.7,4.8 149.7,5 C149.7,17.2 149.9,29.4 149.6,41.5 C149.5,47.7 147.6,53.3 142.8,57.7 C140.504535,59.681882 137.810579,61.1482123 134.9,62 C130.487568,63.2818722 125.86109,63.6560726 121.3,63.1 C115.687611,62.541446 110.280241,60.6933578 105.5,57.7 C103.6,56.6 103.1,54.6 104.1,53 C105.1,51.4 107.2,50.9 109.2,52.1 C112.258661,54.0588168 115.646597,55.4478709 119.2,56.2 C122.478325,56.9624447 125.871251,57.0981617 129.2,56.6 C135.7,55.5 140.7,51.7 141.9,44.6 C142.104044,43.5433673 142.237672,42.4743471 142.3,41.4 C142.4,39.6 142.3,37.7 142.3,35.9 L142.1,35.8 Z M109.1,22.4 C109.252741,23.9114325 109.48641,25.4135885 109.8,26.9 C111.4,32.9 115.5,36.6 121.3,38 C126.682708,39.3266591 132.376218,38.0696504 136.7,34.6 C143.1,29.8 144.5,20 139.8,13.7 C135.271822,8.02231378 127.84053,5.51914189 120.8,7.3 C113.9,9.2 109,14.9 109.1,22.4 Z" id="g"></path>
                    <path d="M59.8,8.8 C61,7.4 61.9,6.2 63,5.2 C65.5487847,2.74050954 68.7984105,1.13316776 72.3,0.6 C76.6065856,-0.190784822 81.0530085,0.404405644 85,2.3 C89.0682975,4.26858356 92.0664776,7.92490083 93.2,12.3 C93.7982076,14.2809576 94.1343997,16.3317297 94.2,18.4 C94.3,27.3 94.2,36.3 94.3,45.2 C94.3435332,46.8175698 93.3308883,48.2757785 91.8,48.8 C90.5328586,49.4433387 88.9881808,49.1093543 88.1,48 C87.3763345,47.0844302 86.956791,45.9656477 86.9,44.8 C86.8,37 86.8,29.1 86.9,21.3 C86.954424,19.1644463 86.650202,17.0348929 86,15 C84.5,10.5 81.3,8 76.6,7.2 C72.4470138,6.37968681 68.1458662,7.48254515 64.9,10.2 C62.3722594,12.1995793 60.7223877,15.1047881 60.3,18.3 C60.0085098,20.7555707 59.8749019,23.2273165 59.9,25.7 C59.8,32.3 59.9,38.9 59.9,45.5 C60.0458486,47.1240969 58.9836101,48.6112308 57.4,49 C55.9777808,49.5112403 54.3888138,49.0223273 53.5,47.8 C52.9257506,46.9036595 52.6139792,45.8644216 52.6,44.8 C52.5,35.7 52.6,26.7 52.6,17.6 C52.6,13.3 52.6,9 52.6,4.7 C52.6,1.9 54.9,0.2 57.4,1 C58.8445195,1.44433932 59.8223454,2.78884984 59.8,4.3 C59.8,5.7 59.8,7.1 59.8,8.8 Z" id="n"></path>
                    <path d="M24.9,27.8 L9.1,27.8 C7.5,27.8 7.5,28 7.8,29.6 C8.28414041,32.2316308 9.3426016,34.7241362 10.9,36.9 C13.2938231,40.0819372 16.7880974,42.2569447 20.7,43 C23.6953396,43.5779158 26.7871085,43.4061508 29.7,42.5 C32.2461265,41.7433617 34.5994661,40.4473195 36.6,38.7 C37.6,37.9 38.5,37 39.9,37.1 C41.1161065,37.1311636 42.2015857,37.8707368 42.6755849,38.9910987 C43.1495842,40.1114606 42.9244837,41.4055098 42.1,42.3 C38,46.4 33.1,49.2 27.2,49.5 C24.4299327,49.6488491 21.6520928,49.5484452 18.9,49.2 C15.3708287,48.6584549 12.0537642,47.1726865 9.3,44.9 C4.54498487,41.3065016 1.38614519,35.9939076 0.5,30.1 C-1,21 0.9,12.9 7.6,6.3 C10.7059194,3.24828723 14.6950782,1.25370782 19,0.6 C25.6,-0.5 31.6,0.8 36.7,5.1 C41.309819,8.96415392 44.189005,14.5065869 44.7,20.5 L45,23.2 C45.2365627,24.2598383 44.9955988,25.3700926 44.3409712,26.2365116 C43.6863435,27.1029305 42.6841491,27.6380328 41.6,27.7 L24.9,27.7 L24.9,27.8 Z M22.4,22.3 L35.7,22.3 C37.4,22.3 37.5,22.2 37.3,20.6 C37.1146135,19.4162329 36.8473048,18.2467572 36.5,17.1 C34.9,12.1 31.8,8.5 26.6,7.1 C20.6855313,5.42868134 14.3646344,7.72352926 10.9,12.8 C9.26164085,15.2114014 8.13823926,17.9347992 7.6,20.8 C7.3,22 7.5,22.3 8.8,22.3 L22.4,22.3 Z" id="e"></path>
                </g>
                <path d="M254.9,83.4000125 C253.548044,83.4038892 252.360518,82.5030074 252,81.2 C245.679103,59.8218513 232.850593,40.9461148 215.3,27.2 C179.033314,-1.09709668 128.166686,-1.09709668 91.9,27.2 C74.3664648,40.9198266 61.5395363,59.7582855 55.2,81.1 C54.7305579,82.7016257 53.0516258,83.6194419 51.45,83.1499999 C49.8483743,82.6805579 48.930558,81.0016258 49.4,79.4 C56.1158959,56.8667957 69.6758566,36.9811832 88.2,22.5 C126.662627,-7.46990699 180.583243,-7.42868328 219,22.6 C237.509031,37.1175173 251.035707,57.0405292 257.7,79.6 C258.154257,81.1724111 257.264355,82.8187302 255.7,83.3 L254.9,83.4000125 Z" id="Path" fill="#82D3F6"></path>
            </g>
        </g>
    </g>
</svg>